<?xml version="1.0" encoding="UTF-8"?>
<svg width="35px" height="33px" viewBox="0 0 35 33" version="1.1" xmlns="http://www.w3.org/2000/svg" xmlns:xlink="http://www.w3.org/1999/xlink">
    <!-- Generator: Sketch 61 (89581) - https://sketch.com -->
    <title>Group 2</title>
    <desc>Created with Sketch.</desc>
    <g id="Page-1" stroke="none" stroke-width="1" fill="none" fill-rule="evenodd">
        <g id="Group-2">
            <rect id="Rectangle" fill="#D8D8D8" x="9" y="0" width="22" height="30" rx="8"></rect>
            <rect id="Rectangle" fill="#D8D8D8" x="13" y="3" width="5" height="30" rx="2.5"></rect>
            <path d="M27.9890384,14.8684048 C29.0922049,14.3867675 30.3776938,14.8801502 30.8753325,15.9761915 L35.1027443,25.2869989 C35.5911259,26.3626517 35.1150486,27.6305522 34.0393957,28.1189339 C34.0299485,28.1232232 34.0204702,28.1274438 34.0109616,28.1315952 C32.9077951,28.6132325 31.6223062,28.1198498 31.1246675,27.0238085 L26.8972557,17.7130011 C26.4088741,16.6373483 26.8849514,15.3694478 27.9606043,14.8810661 C27.9700515,14.8767768 27.9795298,14.8725562 27.9890384,14.8684048 Z" id="Rectangle" fill="#D8D8D8" transform="translate(31.000000, 21.500000) rotate(14.000000) translate(-31.000000, -21.500000) "></path>
            <path d="M27.9890384,14.8684048 C29.0922049,14.3867675 30.3776938,14.8801502 30.8753325,15.9761915 L35.1027443,25.2869989 C35.5911259,26.3626517 35.1150486,27.6305522 34.0393957,28.1189339 C34.0299485,28.1232232 34.0204702,28.1274438 34.0109616,28.1315952 C32.9077951,28.6132325 31.6223062,28.1198498 31.1246675,27.0238085 L26.8972557,17.7130011 C26.4088741,16.6373483 26.8849514,15.3694478 27.9606043,14.8810661 C27.9700515,14.8767768 27.9795298,14.8725562 27.9890384,14.8684048 Z" id="Rectangle" fill="#D8D8D8" transform="translate(31.000000, 21.500000) rotate(14.000000) translate(-31.000000, -21.500000) "></path>
            <path d="M11.3567496,18.5747017 C10.4486256,19.3623769 9.07426679,19.2662726 8.28460347,18.3598768 L1.42889576,10.4907198 C0.641465818,9.58688752 0.735828549,8.21584862 1.63966081,7.42841868 C1.6408562,7.42737724 1.64205272,7.42633712 1.64325039,7.42529831 C2.55137441,6.63762307 3.92573321,6.73372737 4.71539653,7.64012317 L11.5711042,15.5092802 C12.3585342,16.4131125 12.2641715,17.7841514 11.3603392,18.5715813 C11.3591438,18.5726228 11.3579473,18.5736629 11.3567496,18.5747017 Z" id="Rectangle" fill="#D8D8D8"></path>
            <rect id="Rectangle-Copy" fill="#D8D8D8" x="21" y="3" width="5" height="30" rx="2.5"></rect>
            <rect id="Rectangle" fill="#383E48" x="11" y="4" width="16" height="15" rx="5"></rect>
            <rect id="Rectangle" fill="#D8D8D8" x="14" y="9" width="3" height="3" rx="1.5"></rect>
            <rect id="Rectangle-Copy-2" fill="#D8D8D8" x="20" y="9" width="3" height="3" rx="1.5"></rect>
        </g>
    </g>
</svg>